<mxfile host="app.diagrams.net" modified="2023-02-08T21:39:31.898Z" agent="5.0 (Windows)" etag="Xm7PdAkd2QcSRzX-lFQ9" version="20.8.18" type="github">
  <diagram id="C5RBs43oDa-KdzZeNtuy" name="Page-1">
    <mxGraphModel dx="2032" dy="474" grid="1" gridSize="10" guides="1" tooltips="1" connect="1" arrows="1" fold="1" page="1" pageScale="1" pageWidth="827" pageHeight="1169" math="0" shadow="0">
      <root>
        <mxCell id="WIyWlLk6GJQsqaUBKTNV-0" />
        <mxCell id="WIyWlLk6GJQsqaUBKTNV-1" parent="WIyWlLk6GJQsqaUBKTNV-0" />
        <mxCell id="WIyWlLk6GJQsqaUBKTNV-2" value="100" style="rounded=0;html=1;jettySize=auto;orthogonalLoop=1;fontSize=11;endArrow=block;endFill=0;endSize=8;strokeWidth=1;shadow=0;labelBackgroundColor=none;edgeStyle=orthogonalEdgeStyle;" parent="WIyWlLk6GJQsqaUBKTNV-1" source="WIyWlLk6GJQsqaUBKTNV-3" target="WIyWlLk6GJQsqaUBKTNV-6" edge="1">
          <mxGeometry x="-0.125" y="10" relative="1" as="geometry">
            <mxPoint as="offset" />
          </mxGeometry>
        </mxCell>
        <mxCell id="GcZR3O-2zoZDcLtCYp-j-6" style="edgeStyle=orthogonalEdgeStyle;rounded=0;orthogonalLoop=1;jettySize=auto;html=1;exitX=1;exitY=0.75;exitDx=0;exitDy=0;entryX=0.091;entryY=0.628;entryDx=0;entryDy=0;entryPerimeter=0;" parent="WIyWlLk6GJQsqaUBKTNV-1" source="WIyWlLk6GJQsqaUBKTNV-3" target="WIyWlLk6GJQsqaUBKTNV-6" edge="1">
          <mxGeometry relative="1" as="geometry" />
        </mxCell>
        <mxCell id="GcZR3O-2zoZDcLtCYp-j-7" value="30" style="edgeLabel;html=1;align=center;verticalAlign=middle;resizable=0;points=[];" parent="GcZR3O-2zoZDcLtCYp-j-6" vertex="1" connectable="0">
          <mxGeometry x="-0.2051" y="-1" relative="1" as="geometry">
            <mxPoint x="-4" as="offset" />
          </mxGeometry>
        </mxCell>
        <mxCell id="WIyWlLk6GJQsqaUBKTNV-3" value="Kranik" style="rounded=1;whiteSpace=wrap;html=1;fontSize=12;glass=0;strokeWidth=1;shadow=0;" parent="WIyWlLk6GJQsqaUBKTNV-1" vertex="1">
          <mxGeometry x="70" y="40" width="70" height="40" as="geometry" />
        </mxCell>
        <mxCell id="WIyWlLk6GJQsqaUBKTNV-5" value="30" style="edgeStyle=orthogonalEdgeStyle;rounded=0;html=1;jettySize=auto;orthogonalLoop=1;fontSize=11;endArrow=block;endFill=0;endSize=8;strokeWidth=1;shadow=0;labelBackgroundColor=none;exitX=0.5;exitY=1;exitDx=0;exitDy=0;entryX=0;entryY=0.5;entryDx=0;entryDy=0;" parent="WIyWlLk6GJQsqaUBKTNV-1" source="WIyWlLk6GJQsqaUBKTNV-6" target="WIyWlLk6GJQsqaUBKTNV-7" edge="1">
          <mxGeometry y="10" relative="1" as="geometry">
            <mxPoint as="offset" />
          </mxGeometry>
        </mxCell>
        <mxCell id="GcZR3O-2zoZDcLtCYp-j-4" value="70" style="edgeStyle=orthogonalEdgeStyle;rounded=0;orthogonalLoop=1;jettySize=auto;html=1;" parent="WIyWlLk6GJQsqaUBKTNV-1" source="WIyWlLk6GJQsqaUBKTNV-6" target="GcZR3O-2zoZDcLtCYp-j-3" edge="1">
          <mxGeometry x="-0.0476" y="20" relative="1" as="geometry">
            <mxPoint as="offset" />
          </mxGeometry>
        </mxCell>
        <mxCell id="GcZR3O-2zoZDcLtCYp-j-5" value="after 5 min&amp;nbsp; -&amp;gt; callback incriment limint" style="edgeStyle=orthogonalEdgeStyle;rounded=0;orthogonalLoop=1;jettySize=auto;html=1;entryX=0.5;entryY=1;entryDx=0;entryDy=0;" parent="WIyWlLk6GJQsqaUBKTNV-1" source="WIyWlLk6GJQsqaUBKTNV-6" target="WIyWlLk6GJQsqaUBKTNV-3" edge="1">
          <mxGeometry relative="1" as="geometry">
            <Array as="points">
              <mxPoint x="355" y="140" />
              <mxPoint x="105" y="140" />
            </Array>
          </mxGeometry>
        </mxCell>
        <mxCell id="GcZR3O-2zoZDcLtCYp-j-8" style="edgeStyle=orthogonalEdgeStyle;rounded=0;orthogonalLoop=1;jettySize=auto;html=1;exitX=1;exitY=1;exitDx=0;exitDy=0;entryX=0.035;entryY=0.749;entryDx=0;entryDy=0;entryPerimeter=0;" parent="WIyWlLk6GJQsqaUBKTNV-1" source="WIyWlLk6GJQsqaUBKTNV-6" target="GcZR3O-2zoZDcLtCYp-j-3" edge="1">
          <mxGeometry relative="1" as="geometry" />
        </mxCell>
        <mxCell id="GcZR3O-2zoZDcLtCYp-j-9" value="30" style="edgeLabel;html=1;align=center;verticalAlign=middle;resizable=0;points=[];" parent="GcZR3O-2zoZDcLtCYp-j-8" vertex="1" connectable="0">
          <mxGeometry x="-0.1021" relative="1" as="geometry">
            <mxPoint x="10" as="offset" />
          </mxGeometry>
        </mxCell>
        <mxCell id="WIyWlLk6GJQsqaUBKTNV-6" value="CRM/omnichat&lt;br&gt;smart algoritm" style="rhombus;whiteSpace=wrap;html=1;shadow=0;fontFamily=Helvetica;fontSize=12;align=center;strokeWidth=1;spacing=6;spacingTop=-4;" parent="WIyWlLk6GJQsqaUBKTNV-1" vertex="1">
          <mxGeometry x="300" y="20" width="110" height="80" as="geometry" />
        </mxCell>
        <mxCell id="WIyWlLk6GJQsqaUBKTNV-7" value="Wait for timeout&lt;br&gt;(5 hour)" style="rounded=1;whiteSpace=wrap;html=1;fontSize=12;glass=0;strokeWidth=1;shadow=0;" parent="WIyWlLk6GJQsqaUBKTNV-1" vertex="1">
          <mxGeometry x="390" y="100" width="120" height="40" as="geometry" />
        </mxCell>
        <mxCell id="GcZR3O-2zoZDcLtCYp-j-0" value="queue: 100 in hour and 600 in day" style="text;html=1;strokeColor=none;fillColor=none;align=center;verticalAlign=middle;whiteSpace=wrap;rounded=0;" parent="WIyWlLk6GJQsqaUBKTNV-1" vertex="1">
          <mxGeometry x="100" y="10" width="200" height="30" as="geometry" />
        </mxCell>
        <mxCell id="GcZR3O-2zoZDcLtCYp-j-1" value="1 hour" style="text;html=1;strokeColor=none;fillColor=none;align=center;verticalAlign=middle;whiteSpace=wrap;rounded=0;" parent="WIyWlLk6GJQsqaUBKTNV-1" vertex="1">
          <mxGeometry x="10" y="50" width="60" height="30" as="geometry" />
        </mxCell>
        <mxCell id="GcZR3O-2zoZDcLtCYp-j-3" value="CRM" style="ellipse;whiteSpace=wrap;html=1;" parent="WIyWlLk6GJQsqaUBKTNV-1" vertex="1">
          <mxGeometry x="620" y="20" width="120" height="80" as="geometry" />
        </mxCell>
        <mxCell id="GcZR3O-2zoZDcLtCYp-j-24" value="100" style="rounded=0;html=1;jettySize=auto;orthogonalLoop=1;fontSize=11;endArrow=block;endFill=0;endSize=8;strokeWidth=1;shadow=0;labelBackgroundColor=none;edgeStyle=orthogonalEdgeStyle;" parent="WIyWlLk6GJQsqaUBKTNV-1" source="GcZR3O-2zoZDcLtCYp-j-27" target="GcZR3O-2zoZDcLtCYp-j-33" edge="1">
          <mxGeometry x="-0.125" y="10" relative="1" as="geometry">
            <mxPoint as="offset" />
          </mxGeometry>
        </mxCell>
        <mxCell id="GcZR3O-2zoZDcLtCYp-j-25" style="edgeStyle=orthogonalEdgeStyle;rounded=0;orthogonalLoop=1;jettySize=auto;html=1;exitX=1;exitY=0.75;exitDx=0;exitDy=0;entryX=0.091;entryY=0.628;entryDx=0;entryDy=0;entryPerimeter=0;" parent="WIyWlLk6GJQsqaUBKTNV-1" source="GcZR3O-2zoZDcLtCYp-j-27" target="GcZR3O-2zoZDcLtCYp-j-33" edge="1">
          <mxGeometry relative="1" as="geometry" />
        </mxCell>
        <mxCell id="GcZR3O-2zoZDcLtCYp-j-26" value="30" style="edgeLabel;html=1;align=center;verticalAlign=middle;resizable=0;points=[];" parent="GcZR3O-2zoZDcLtCYp-j-25" vertex="1" connectable="0">
          <mxGeometry x="-0.2051" y="-1" relative="1" as="geometry">
            <mxPoint x="-4" as="offset" />
          </mxGeometry>
        </mxCell>
        <mxCell id="GcZR3O-2zoZDcLtCYp-j-27" value="Kranik" style="rounded=1;whiteSpace=wrap;html=1;fontSize=12;glass=0;strokeWidth=1;shadow=0;" parent="WIyWlLk6GJQsqaUBKTNV-1" vertex="1">
          <mxGeometry x="70" y="220" width="70" height="40" as="geometry" />
        </mxCell>
        <mxCell id="GcZR3O-2zoZDcLtCYp-j-28" value="30" style="edgeStyle=orthogonalEdgeStyle;rounded=0;html=1;jettySize=auto;orthogonalLoop=1;fontSize=11;endArrow=block;endFill=0;endSize=8;strokeWidth=1;shadow=0;labelBackgroundColor=none;exitX=0.5;exitY=1;exitDx=0;exitDy=0;entryX=0;entryY=0.5;entryDx=0;entryDy=0;" parent="WIyWlLk6GJQsqaUBKTNV-1" source="GcZR3O-2zoZDcLtCYp-j-33" target="GcZR3O-2zoZDcLtCYp-j-34" edge="1">
          <mxGeometry y="10" relative="1" as="geometry">
            <mxPoint as="offset" />
          </mxGeometry>
        </mxCell>
        <mxCell id="GcZR3O-2zoZDcLtCYp-j-29" value="70" style="edgeStyle=orthogonalEdgeStyle;rounded=0;orthogonalLoop=1;jettySize=auto;html=1;" parent="WIyWlLk6GJQsqaUBKTNV-1" source="GcZR3O-2zoZDcLtCYp-j-33" target="GcZR3O-2zoZDcLtCYp-j-37" edge="1">
          <mxGeometry x="-0.0476" y="20" relative="1" as="geometry">
            <mxPoint as="offset" />
          </mxGeometry>
        </mxCell>
        <mxCell id="GcZR3O-2zoZDcLtCYp-j-30" value="after 5 min&amp;nbsp; -&amp;gt;&amp;nbsp; incriment limint" style="edgeStyle=orthogonalEdgeStyle;rounded=0;orthogonalLoop=1;jettySize=auto;html=1;entryX=0.5;entryY=1;entryDx=0;entryDy=0;" parent="WIyWlLk6GJQsqaUBKTNV-1" source="GcZR3O-2zoZDcLtCYp-j-33" target="GcZR3O-2zoZDcLtCYp-j-27" edge="1">
          <mxGeometry x="0.0008" relative="1" as="geometry">
            <Array as="points">
              <mxPoint x="355" y="320" />
              <mxPoint x="105" y="320" />
            </Array>
            <mxPoint as="offset" />
          </mxGeometry>
        </mxCell>
        <mxCell id="GcZR3O-2zoZDcLtCYp-j-31" style="edgeStyle=orthogonalEdgeStyle;rounded=0;orthogonalLoop=1;jettySize=auto;html=1;exitX=1;exitY=1;exitDx=0;exitDy=0;entryX=0.035;entryY=0.749;entryDx=0;entryDy=0;entryPerimeter=0;" parent="WIyWlLk6GJQsqaUBKTNV-1" source="GcZR3O-2zoZDcLtCYp-j-33" target="GcZR3O-2zoZDcLtCYp-j-37" edge="1">
          <mxGeometry relative="1" as="geometry" />
        </mxCell>
        <mxCell id="GcZR3O-2zoZDcLtCYp-j-32" value="30" style="edgeLabel;html=1;align=center;verticalAlign=middle;resizable=0;points=[];" parent="GcZR3O-2zoZDcLtCYp-j-31" vertex="1" connectable="0">
          <mxGeometry x="-0.1021" relative="1" as="geometry">
            <mxPoint x="10" as="offset" />
          </mxGeometry>
        </mxCell>
        <mxCell id="GcZR3O-2zoZDcLtCYp-j-33" value="CRM/omnichat&lt;br&gt;smart algoritm" style="rhombus;whiteSpace=wrap;html=1;shadow=0;fontFamily=Helvetica;fontSize=12;align=center;strokeWidth=1;spacing=6;spacingTop=-4;" parent="WIyWlLk6GJQsqaUBKTNV-1" vertex="1">
          <mxGeometry x="300" y="200" width="110" height="80" as="geometry" />
        </mxCell>
        <mxCell id="GcZR3O-2zoZDcLtCYp-j-34" value="Wait for timeout&lt;br&gt;(5 hour)" style="rounded=1;whiteSpace=wrap;html=1;fontSize=12;glass=0;strokeWidth=1;shadow=0;" parent="WIyWlLk6GJQsqaUBKTNV-1" vertex="1">
          <mxGeometry x="390" y="280" width="120" height="40" as="geometry" />
        </mxCell>
        <mxCell id="GcZR3O-2zoZDcLtCYp-j-36" value="2 hour" style="text;html=1;strokeColor=none;fillColor=none;align=center;verticalAlign=middle;whiteSpace=wrap;rounded=0;" parent="WIyWlLk6GJQsqaUBKTNV-1" vertex="1">
          <mxGeometry x="10" y="230" width="60" height="30" as="geometry" />
        </mxCell>
        <mxCell id="GcZR3O-2zoZDcLtCYp-j-37" value="CRM" style="ellipse;whiteSpace=wrap;html=1;" parent="WIyWlLk6GJQsqaUBKTNV-1" vertex="1">
          <mxGeometry x="620" y="200" width="120" height="80" as="geometry" />
        </mxCell>
        <mxCell id="GcZR3O-2zoZDcLtCYp-j-38" value="60" style="rounded=0;whiteSpace=wrap;html=1;" parent="WIyWlLk6GJQsqaUBKTNV-1" vertex="1">
          <mxGeometry x="510" y="280" width="60" height="40" as="geometry" />
        </mxCell>
        <mxCell id="GcZR3O-2zoZDcLtCYp-j-55" value="100" style="rounded=0;html=1;jettySize=auto;orthogonalLoop=1;fontSize=11;endArrow=block;endFill=0;endSize=8;strokeWidth=1;shadow=0;labelBackgroundColor=none;edgeStyle=orthogonalEdgeStyle;" parent="WIyWlLk6GJQsqaUBKTNV-1" source="GcZR3O-2zoZDcLtCYp-j-58" target="GcZR3O-2zoZDcLtCYp-j-64" edge="1">
          <mxGeometry x="-0.125" y="10" relative="1" as="geometry">
            <mxPoint as="offset" />
          </mxGeometry>
        </mxCell>
        <mxCell id="GcZR3O-2zoZDcLtCYp-j-56" style="edgeStyle=orthogonalEdgeStyle;rounded=0;orthogonalLoop=1;jettySize=auto;html=1;exitX=1;exitY=0.75;exitDx=0;exitDy=0;entryX=0.091;entryY=0.628;entryDx=0;entryDy=0;entryPerimeter=0;" parent="WIyWlLk6GJQsqaUBKTNV-1" source="GcZR3O-2zoZDcLtCYp-j-58" target="GcZR3O-2zoZDcLtCYp-j-64" edge="1">
          <mxGeometry relative="1" as="geometry" />
        </mxCell>
        <mxCell id="GcZR3O-2zoZDcLtCYp-j-57" value="30" style="edgeLabel;html=1;align=center;verticalAlign=middle;resizable=0;points=[];" parent="GcZR3O-2zoZDcLtCYp-j-56" vertex="1" connectable="0">
          <mxGeometry x="-0.2051" y="-1" relative="1" as="geometry">
            <mxPoint x="-4" as="offset" />
          </mxGeometry>
        </mxCell>
        <mxCell id="GcZR3O-2zoZDcLtCYp-j-58" value="Kranik" style="rounded=1;whiteSpace=wrap;html=1;fontSize=12;glass=0;strokeWidth=1;shadow=0;" parent="WIyWlLk6GJQsqaUBKTNV-1" vertex="1">
          <mxGeometry x="70" y="400" width="70" height="40" as="geometry" />
        </mxCell>
        <mxCell id="GcZR3O-2zoZDcLtCYp-j-59" value="30" style="edgeStyle=orthogonalEdgeStyle;rounded=0;html=1;jettySize=auto;orthogonalLoop=1;fontSize=11;endArrow=block;endFill=0;endSize=8;strokeWidth=1;shadow=0;labelBackgroundColor=none;exitX=0.5;exitY=1;exitDx=0;exitDy=0;entryX=0;entryY=0.5;entryDx=0;entryDy=0;" parent="WIyWlLk6GJQsqaUBKTNV-1" source="GcZR3O-2zoZDcLtCYp-j-64" target="GcZR3O-2zoZDcLtCYp-j-65" edge="1">
          <mxGeometry y="10" relative="1" as="geometry">
            <mxPoint as="offset" />
          </mxGeometry>
        </mxCell>
        <mxCell id="GcZR3O-2zoZDcLtCYp-j-60" value="70" style="edgeStyle=orthogonalEdgeStyle;rounded=0;orthogonalLoop=1;jettySize=auto;html=1;" parent="WIyWlLk6GJQsqaUBKTNV-1" source="GcZR3O-2zoZDcLtCYp-j-64" target="GcZR3O-2zoZDcLtCYp-j-68" edge="1">
          <mxGeometry x="-0.0476" y="20" relative="1" as="geometry">
            <mxPoint as="offset" />
          </mxGeometry>
        </mxCell>
        <mxCell id="GcZR3O-2zoZDcLtCYp-j-61" value="after 5 min&amp;nbsp; -&amp;gt;&amp;nbsp; incriment limint" style="edgeStyle=orthogonalEdgeStyle;rounded=0;orthogonalLoop=1;jettySize=auto;html=1;entryX=0.5;entryY=1;entryDx=0;entryDy=0;" parent="WIyWlLk6GJQsqaUBKTNV-1" source="GcZR3O-2zoZDcLtCYp-j-64" target="GcZR3O-2zoZDcLtCYp-j-58" edge="1">
          <mxGeometry relative="1" as="geometry">
            <Array as="points">
              <mxPoint x="355" y="500" />
              <mxPoint x="105" y="500" />
            </Array>
          </mxGeometry>
        </mxCell>
        <mxCell id="GcZR3O-2zoZDcLtCYp-j-62" style="edgeStyle=orthogonalEdgeStyle;rounded=0;orthogonalLoop=1;jettySize=auto;html=1;exitX=1;exitY=1;exitDx=0;exitDy=0;entryX=0.035;entryY=0.749;entryDx=0;entryDy=0;entryPerimeter=0;" parent="WIyWlLk6GJQsqaUBKTNV-1" source="GcZR3O-2zoZDcLtCYp-j-64" target="GcZR3O-2zoZDcLtCYp-j-68" edge="1">
          <mxGeometry relative="1" as="geometry" />
        </mxCell>
        <mxCell id="GcZR3O-2zoZDcLtCYp-j-63" value="30" style="edgeLabel;html=1;align=center;verticalAlign=middle;resizable=0;points=[];" parent="GcZR3O-2zoZDcLtCYp-j-62" vertex="1" connectable="0">
          <mxGeometry x="-0.1021" relative="1" as="geometry">
            <mxPoint x="10" as="offset" />
          </mxGeometry>
        </mxCell>
        <mxCell id="GcZR3O-2zoZDcLtCYp-j-77" value="after recive MLK callbak -&amp;gt; decriment limit" style="edgeStyle=orthogonalEdgeStyle;rounded=0;orthogonalLoop=1;jettySize=auto;html=1;exitX=0;exitY=1;exitDx=0;exitDy=0;entryX=0.75;entryY=1;entryDx=0;entryDy=0;" parent="WIyWlLk6GJQsqaUBKTNV-1" source="GcZR3O-2zoZDcLtCYp-j-64" target="GcZR3O-2zoZDcLtCYp-j-58" edge="1">
          <mxGeometry relative="1" as="geometry">
            <Array as="points">
              <mxPoint x="327" y="480" />
              <mxPoint x="123" y="480" />
            </Array>
          </mxGeometry>
        </mxCell>
        <mxCell id="GcZR3O-2zoZDcLtCYp-j-64" value="CRM/omnichat&lt;br&gt;smart algoritm" style="rhombus;whiteSpace=wrap;html=1;shadow=0;fontFamily=Helvetica;fontSize=12;align=center;strokeWidth=1;spacing=6;spacingTop=-4;" parent="WIyWlLk6GJQsqaUBKTNV-1" vertex="1">
          <mxGeometry x="300" y="380" width="110" height="80" as="geometry" />
        </mxCell>
        <mxCell id="GcZR3O-2zoZDcLtCYp-j-65" value="Wait for timeout&lt;br&gt;(5 hour)" style="rounded=1;whiteSpace=wrap;html=1;fontSize=12;glass=0;strokeWidth=1;shadow=0;" parent="WIyWlLk6GJQsqaUBKTNV-1" vertex="1">
          <mxGeometry x="390" y="460" width="120" height="40" as="geometry" />
        </mxCell>
        <mxCell id="GcZR3O-2zoZDcLtCYp-j-67" value="3 hour" style="text;html=1;strokeColor=none;fillColor=none;align=center;verticalAlign=middle;whiteSpace=wrap;rounded=0;" parent="WIyWlLk6GJQsqaUBKTNV-1" vertex="1">
          <mxGeometry x="10" y="410" width="60" height="30" as="geometry" />
        </mxCell>
        <mxCell id="GcZR3O-2zoZDcLtCYp-j-68" value="CRM" style="ellipse;whiteSpace=wrap;html=1;" parent="WIyWlLk6GJQsqaUBKTNV-1" vertex="1">
          <mxGeometry x="620" y="380" width="120" height="80" as="geometry" />
        </mxCell>
        <mxCell id="GcZR3O-2zoZDcLtCYp-j-69" value="65" style="rounded=0;whiteSpace=wrap;html=1;" parent="WIyWlLk6GJQsqaUBKTNV-1" vertex="1">
          <mxGeometry x="510" y="460" width="60" height="40" as="geometry" />
        </mxCell>
        <mxCell id="GcZR3O-2zoZDcLtCYp-j-70" value="" style="shape=flexArrow;endArrow=classic;html=1;rounded=0;entryX=1;entryY=0;entryDx=0;entryDy=0;" parent="WIyWlLk6GJQsqaUBKTNV-1" target="WIyWlLk6GJQsqaUBKTNV-6" edge="1">
          <mxGeometry width="50" height="50" relative="1" as="geometry">
            <mxPoint x="420" y="10" as="sourcePoint" />
            <mxPoint x="475" y="-20" as="targetPoint" />
          </mxGeometry>
        </mxCell>
        <mxCell id="GcZR3O-2zoZDcLtCYp-j-72" value="MLK return 0" style="edgeLabel;html=1;align=center;verticalAlign=middle;resizable=0;points=[];" parent="GcZR3O-2zoZDcLtCYp-j-70" vertex="1" connectable="0">
          <mxGeometry x="-0.6181" y="-6" relative="1" as="geometry">
            <mxPoint as="offset" />
          </mxGeometry>
        </mxCell>
        <mxCell id="GcZR3O-2zoZDcLtCYp-j-73" value="" style="shape=flexArrow;endArrow=classic;html=1;rounded=0;entryX=1;entryY=0;entryDx=0;entryDy=0;" parent="WIyWlLk6GJQsqaUBKTNV-1" edge="1">
          <mxGeometry width="50" height="50" relative="1" as="geometry">
            <mxPoint x="417.5" y="190" as="sourcePoint" />
            <mxPoint x="380" y="220" as="targetPoint" />
          </mxGeometry>
        </mxCell>
        <mxCell id="GcZR3O-2zoZDcLtCYp-j-74" value="MLK return 0" style="edgeLabel;html=1;align=center;verticalAlign=middle;resizable=0;points=[];" parent="GcZR3O-2zoZDcLtCYp-j-73" vertex="1" connectable="0">
          <mxGeometry x="-0.6181" y="-6" relative="1" as="geometry">
            <mxPoint as="offset" />
          </mxGeometry>
        </mxCell>
        <mxCell id="GcZR3O-2zoZDcLtCYp-j-75" value="" style="shape=flexArrow;endArrow=classic;html=1;rounded=0;entryX=1;entryY=0;entryDx=0;entryDy=0;" parent="WIyWlLk6GJQsqaUBKTNV-1" edge="1">
          <mxGeometry width="50" height="50" relative="1" as="geometry">
            <mxPoint x="417.5" y="370" as="sourcePoint" />
            <mxPoint x="380" y="400" as="targetPoint" />
          </mxGeometry>
        </mxCell>
        <mxCell id="GcZR3O-2zoZDcLtCYp-j-76" value="MLK return 25" style="edgeLabel;html=1;align=center;verticalAlign=middle;resizable=0;points=[];" parent="GcZR3O-2zoZDcLtCYp-j-75" vertex="1" connectable="0">
          <mxGeometry x="-0.6181" y="-6" relative="1" as="geometry">
            <mxPoint as="offset" />
          </mxGeometry>
        </mxCell>
        <mxCell id="GcZR3O-2zoZDcLtCYp-j-78" value="75" style="rounded=0;html=1;jettySize=auto;orthogonalLoop=1;fontSize=11;endArrow=block;endFill=0;endSize=8;strokeWidth=1;shadow=0;labelBackgroundColor=none;edgeStyle=orthogonalEdgeStyle;" parent="WIyWlLk6GJQsqaUBKTNV-1" source="GcZR3O-2zoZDcLtCYp-j-81" target="GcZR3O-2zoZDcLtCYp-j-88" edge="1">
          <mxGeometry x="-0.1207" y="10" relative="1" as="geometry">
            <mxPoint as="offset" />
          </mxGeometry>
        </mxCell>
        <mxCell id="GcZR3O-2zoZDcLtCYp-j-79" style="edgeStyle=orthogonalEdgeStyle;rounded=0;orthogonalLoop=1;jettySize=auto;html=1;exitX=1;exitY=0.75;exitDx=0;exitDy=0;entryX=0.091;entryY=0.628;entryDx=0;entryDy=0;entryPerimeter=0;" parent="WIyWlLk6GJQsqaUBKTNV-1" source="GcZR3O-2zoZDcLtCYp-j-81" target="GcZR3O-2zoZDcLtCYp-j-88" edge="1">
          <mxGeometry relative="1" as="geometry" />
        </mxCell>
        <mxCell id="GcZR3O-2zoZDcLtCYp-j-80" value="30" style="edgeLabel;html=1;align=center;verticalAlign=middle;resizable=0;points=[];" parent="GcZR3O-2zoZDcLtCYp-j-79" vertex="1" connectable="0">
          <mxGeometry x="-0.2051" y="-1" relative="1" as="geometry">
            <mxPoint x="-4" as="offset" />
          </mxGeometry>
        </mxCell>
        <mxCell id="GcZR3O-2zoZDcLtCYp-j-81" value="Kranik" style="rounded=1;whiteSpace=wrap;html=1;fontSize=12;glass=0;strokeWidth=1;shadow=0;" parent="WIyWlLk6GJQsqaUBKTNV-1" vertex="1">
          <mxGeometry x="70" y="580" width="70" height="40" as="geometry" />
        </mxCell>
        <mxCell id="GcZR3O-2zoZDcLtCYp-j-82" value="30" style="edgeStyle=orthogonalEdgeStyle;rounded=0;html=1;jettySize=auto;orthogonalLoop=1;fontSize=11;endArrow=block;endFill=0;endSize=8;strokeWidth=1;shadow=0;labelBackgroundColor=none;exitX=0.5;exitY=1;exitDx=0;exitDy=0;entryX=0;entryY=0.5;entryDx=0;entryDy=0;" parent="WIyWlLk6GJQsqaUBKTNV-1" source="GcZR3O-2zoZDcLtCYp-j-88" target="GcZR3O-2zoZDcLtCYp-j-89" edge="1">
          <mxGeometry y="10" relative="1" as="geometry">
            <mxPoint as="offset" />
          </mxGeometry>
        </mxCell>
        <mxCell id="GcZR3O-2zoZDcLtCYp-j-83" value="70" style="edgeStyle=orthogonalEdgeStyle;rounded=0;orthogonalLoop=1;jettySize=auto;html=1;" parent="WIyWlLk6GJQsqaUBKTNV-1" source="GcZR3O-2zoZDcLtCYp-j-88" target="GcZR3O-2zoZDcLtCYp-j-91" edge="1">
          <mxGeometry x="-0.0476" y="20" relative="1" as="geometry">
            <mxPoint as="offset" />
          </mxGeometry>
        </mxCell>
        <mxCell id="GcZR3O-2zoZDcLtCYp-j-84" value="after 5 min&amp;nbsp; -&amp;gt;&amp;nbsp; incriment limint" style="edgeStyle=orthogonalEdgeStyle;rounded=0;orthogonalLoop=1;jettySize=auto;html=1;entryX=0.5;entryY=1;entryDx=0;entryDy=0;" parent="WIyWlLk6GJQsqaUBKTNV-1" source="GcZR3O-2zoZDcLtCYp-j-88" target="GcZR3O-2zoZDcLtCYp-j-81" edge="1">
          <mxGeometry x="0.0012" relative="1" as="geometry">
            <Array as="points">
              <mxPoint x="355" y="680" />
              <mxPoint x="105" y="680" />
            </Array>
            <mxPoint as="offset" />
          </mxGeometry>
        </mxCell>
        <mxCell id="GcZR3O-2zoZDcLtCYp-j-85" style="edgeStyle=orthogonalEdgeStyle;rounded=0;orthogonalLoop=1;jettySize=auto;html=1;exitX=1;exitY=1;exitDx=0;exitDy=0;entryX=0.035;entryY=0.749;entryDx=0;entryDy=0;entryPerimeter=0;" parent="WIyWlLk6GJQsqaUBKTNV-1" source="GcZR3O-2zoZDcLtCYp-j-88" target="GcZR3O-2zoZDcLtCYp-j-91" edge="1">
          <mxGeometry relative="1" as="geometry" />
        </mxCell>
        <mxCell id="GcZR3O-2zoZDcLtCYp-j-86" value="30" style="edgeLabel;html=1;align=center;verticalAlign=middle;resizable=0;points=[];" parent="GcZR3O-2zoZDcLtCYp-j-85" vertex="1" connectable="0">
          <mxGeometry x="-0.1021" relative="1" as="geometry">
            <mxPoint x="10" as="offset" />
          </mxGeometry>
        </mxCell>
        <mxCell id="GcZR3O-2zoZDcLtCYp-j-87" value="after recive MLK callbak -&amp;gt; decriment limit" style="edgeStyle=orthogonalEdgeStyle;rounded=0;orthogonalLoop=1;jettySize=auto;html=1;exitX=0;exitY=1;exitDx=0;exitDy=0;entryX=0.75;entryY=1;entryDx=0;entryDy=0;" parent="WIyWlLk6GJQsqaUBKTNV-1" source="GcZR3O-2zoZDcLtCYp-j-88" target="GcZR3O-2zoZDcLtCYp-j-81" edge="1">
          <mxGeometry relative="1" as="geometry">
            <Array as="points">
              <mxPoint x="327" y="660" />
              <mxPoint x="123" y="660" />
            </Array>
          </mxGeometry>
        </mxCell>
        <mxCell id="GcZR3O-2zoZDcLtCYp-j-88" value="CRM/omnichat&lt;br&gt;smart algoritm" style="rhombus;whiteSpace=wrap;html=1;shadow=0;fontFamily=Helvetica;fontSize=12;align=center;strokeWidth=1;spacing=6;spacingTop=-4;" parent="WIyWlLk6GJQsqaUBKTNV-1" vertex="1">
          <mxGeometry x="300" y="560" width="110" height="80" as="geometry" />
        </mxCell>
        <mxCell id="GcZR3O-2zoZDcLtCYp-j-89" value="Wait for timeout&lt;br&gt;(7 hour)" style="rounded=1;whiteSpace=wrap;html=1;fontSize=12;glass=0;strokeWidth=1;shadow=0;" parent="WIyWlLk6GJQsqaUBKTNV-1" vertex="1">
          <mxGeometry x="390" y="640" width="120" height="40" as="geometry" />
        </mxCell>
        <mxCell id="GcZR3O-2zoZDcLtCYp-j-90" value="4 hour" style="text;html=1;strokeColor=none;fillColor=none;align=center;verticalAlign=middle;whiteSpace=wrap;rounded=0;" parent="WIyWlLk6GJQsqaUBKTNV-1" vertex="1">
          <mxGeometry x="10" y="590" width="60" height="30" as="geometry" />
        </mxCell>
        <mxCell id="GcZR3O-2zoZDcLtCYp-j-91" value="CRM" style="ellipse;whiteSpace=wrap;html=1;" parent="WIyWlLk6GJQsqaUBKTNV-1" vertex="1">
          <mxGeometry x="620" y="560" width="120" height="80" as="geometry" />
        </mxCell>
        <mxCell id="GcZR3O-2zoZDcLtCYp-j-92" value="70" style="rounded=0;whiteSpace=wrap;html=1;" parent="WIyWlLk6GJQsqaUBKTNV-1" vertex="1">
          <mxGeometry x="510" y="640" width="60" height="40" as="geometry" />
        </mxCell>
        <mxCell id="GcZR3O-2zoZDcLtCYp-j-93" value="" style="shape=flexArrow;endArrow=classic;html=1;rounded=0;entryX=1;entryY=0;entryDx=0;entryDy=0;" parent="WIyWlLk6GJQsqaUBKTNV-1" edge="1">
          <mxGeometry width="50" height="50" relative="1" as="geometry">
            <mxPoint x="417.5" y="550" as="sourcePoint" />
            <mxPoint x="380" y="579.9999999999999" as="targetPoint" />
          </mxGeometry>
        </mxCell>
        <mxCell id="GcZR3O-2zoZDcLtCYp-j-94" value="MLK return 25 or timeout" style="edgeLabel;html=1;align=center;verticalAlign=middle;resizable=0;points=[];" parent="GcZR3O-2zoZDcLtCYp-j-93" vertex="1" connectable="0">
          <mxGeometry x="-0.6181" y="-6" relative="1" as="geometry">
            <mxPoint as="offset" />
          </mxGeometry>
        </mxCell>
        <mxCell id="ozFD0g-pxYkvfozkEqXr-0" value="" style="endArrow=none;html=1;rounded=0;" edge="1" parent="WIyWlLk6GJQsqaUBKTNV-1">
          <mxGeometry width="50" height="50" relative="1" as="geometry">
            <mxPoint x="40" y="800" as="sourcePoint" />
            <mxPoint x="760" y="800" as="targetPoint" />
          </mxGeometry>
        </mxCell>
        <mxCell id="ozFD0g-pxYkvfozkEqXr-2" value="" style="rounded=0;whiteSpace=wrap;html=1;" vertex="1" parent="WIyWlLk6GJQsqaUBKTNV-1">
          <mxGeometry x="40" y="820" width="320" height="110" as="geometry" />
        </mxCell>
        <mxCell id="ozFD0g-pxYkvfozkEqXr-10" style="edgeStyle=orthogonalEdgeStyle;rounded=0;orthogonalLoop=1;jettySize=auto;html=1;" edge="1" parent="WIyWlLk6GJQsqaUBKTNV-1" source="ozFD0g-pxYkvfozkEqXr-3" target="ozFD0g-pxYkvfozkEqXr-12">
          <mxGeometry relative="1" as="geometry" />
        </mxCell>
        <mxCell id="ozFD0g-pxYkvfozkEqXr-3" value="SKK/MLK&lt;br&gt;if CRM choice" style="rounded=0;whiteSpace=wrap;html=1;" vertex="1" parent="WIyWlLk6GJQsqaUBKTNV-1">
          <mxGeometry x="280" y="820" width="80" height="110" as="geometry" />
        </mxCell>
        <mxCell id="ozFD0g-pxYkvfozkEqXr-4" value="" style="verticalLabelPosition=bottom;verticalAlign=top;html=1;shape=mxgraph.basic.tick" vertex="1" parent="WIyWlLk6GJQsqaUBKTNV-1">
          <mxGeometry x="290" y="830" width="30" height="20" as="geometry" />
        </mxCell>
        <mxCell id="ozFD0g-pxYkvfozkEqXr-5" value="Краник" style="text;html=1;strokeColor=none;fillColor=none;align=center;verticalAlign=middle;whiteSpace=wrap;rounded=0;" vertex="1" parent="WIyWlLk6GJQsqaUBKTNV-1">
          <mxGeometry x="240" y="900" width="60" height="30" as="geometry" />
        </mxCell>
        <mxCell id="ozFD0g-pxYkvfozkEqXr-6" value="default&lt;span class=&quot;HwtZe&quot; lang=&quot;en&quot;&gt; engine&lt;/span&gt; &lt;span class=&quot;HwtZe&quot; lang=&quot;en&quot;&gt;&lt;/span&gt;&lt;span class=&quot;HwtZe&quot; lang=&quot;en&quot;&gt;&lt;/span&gt;" style="text;html=1;strokeColor=none;fillColor=none;align=center;verticalAlign=middle;whiteSpace=wrap;rounded=0;" vertex="1" parent="WIyWlLk6GJQsqaUBKTNV-1">
          <mxGeometry x="80" y="820" width="140" height="30" as="geometry" />
        </mxCell>
        <mxCell id="ozFD0g-pxYkvfozkEqXr-8" value="CRM" style="ellipse;shape=cloud;whiteSpace=wrap;html=1;" vertex="1" parent="WIyWlLk6GJQsqaUBKTNV-1">
          <mxGeometry x="620" y="835" width="120" height="80" as="geometry" />
        </mxCell>
        <mxCell id="ozFD0g-pxYkvfozkEqXr-13" style="edgeStyle=orthogonalEdgeStyle;rounded=0;orthogonalLoop=1;jettySize=auto;html=1;" edge="1" parent="WIyWlLk6GJQsqaUBKTNV-1" source="ozFD0g-pxYkvfozkEqXr-11" target="ozFD0g-pxYkvfozkEqXr-12">
          <mxGeometry relative="1" as="geometry" />
        </mxCell>
        <mxCell id="ozFD0g-pxYkvfozkEqXr-11" value="MLK/Colback module" style="rounded=1;whiteSpace=wrap;html=1;" vertex="1" parent="WIyWlLk6GJQsqaUBKTNV-1">
          <mxGeometry x="260" y="950" width="120" height="60" as="geometry" />
        </mxCell>
        <mxCell id="ozFD0g-pxYkvfozkEqXr-15" style="edgeStyle=orthogonalEdgeStyle;rounded=0;orthogonalLoop=1;jettySize=auto;html=1;" edge="1" parent="WIyWlLk6GJQsqaUBKTNV-1" source="ozFD0g-pxYkvfozkEqXr-12" target="ozFD0g-pxYkvfozkEqXr-8">
          <mxGeometry relative="1" as="geometry" />
        </mxCell>
        <mxCell id="ozFD0g-pxYkvfozkEqXr-17" value="limit return" style="edgeStyle=orthogonalEdgeStyle;rounded=0;orthogonalLoop=1;jettySize=auto;html=1;exitX=0;exitY=0.75;exitDx=0;exitDy=0;entryX=1;entryY=0.636;entryDx=0;entryDy=0;entryPerimeter=0;" edge="1" parent="WIyWlLk6GJQsqaUBKTNV-1" source="ozFD0g-pxYkvfozkEqXr-12" target="ozFD0g-pxYkvfozkEqXr-3">
          <mxGeometry relative="1" as="geometry" />
        </mxCell>
        <mxCell id="ozFD0g-pxYkvfozkEqXr-12" value="CRM adapter" style="rounded=0;whiteSpace=wrap;html=1;" vertex="1" parent="WIyWlLk6GJQsqaUBKTNV-1">
          <mxGeometry x="450" y="845" width="80" height="60" as="geometry" />
        </mxCell>
        <mxCell id="ozFD0g-pxYkvfozkEqXr-19" value="1 15m" style="text;html=1;strokeColor=none;fillColor=none;align=center;verticalAlign=middle;whiteSpace=wrap;rounded=0;" vertex="1" parent="WIyWlLk6GJQsqaUBKTNV-1">
          <mxGeometry x="-20" y="1040" width="60" height="30" as="geometry" />
        </mxCell>
        <mxCell id="ozFD0g-pxYkvfozkEqXr-20" value="2 15m" style="text;html=1;strokeColor=none;fillColor=none;align=center;verticalAlign=middle;whiteSpace=wrap;rounded=0;" vertex="1" parent="WIyWlLk6GJQsqaUBKTNV-1">
          <mxGeometry x="-20" y="1180" width="60" height="30" as="geometry" />
        </mxCell>
        <mxCell id="ozFD0g-pxYkvfozkEqXr-21" value="3 15m" style="text;html=1;strokeColor=none;fillColor=none;align=center;verticalAlign=middle;whiteSpace=wrap;rounded=0;" vertex="1" parent="WIyWlLk6GJQsqaUBKTNV-1">
          <mxGeometry x="40" y="1180" width="60" height="30" as="geometry" />
        </mxCell>
        <mxCell id="ozFD0g-pxYkvfozkEqXr-22" value="4 15m" style="text;html=1;strokeColor=none;fillColor=none;align=center;verticalAlign=middle;whiteSpace=wrap;rounded=0;" vertex="1" parent="WIyWlLk6GJQsqaUBKTNV-1">
          <mxGeometry x="40" y="1240" width="60" height="30" as="geometry" />
        </mxCell>
        <mxCell id="ozFD0g-pxYkvfozkEqXr-23" value="5 15m" style="text;html=1;strokeColor=none;fillColor=none;align=center;verticalAlign=middle;whiteSpace=wrap;rounded=0;" vertex="1" parent="WIyWlLk6GJQsqaUBKTNV-1">
          <mxGeometry x="40" y="1300" width="60" height="30" as="geometry" />
        </mxCell>
        <mxCell id="ozFD0g-pxYkvfozkEqXr-24" value="queue: 30 in 15 min and 1000 in day" style="text;html=1;strokeColor=none;fillColor=none;align=center;verticalAlign=middle;whiteSpace=wrap;rounded=0;" vertex="1" parent="WIyWlLk6GJQsqaUBKTNV-1">
          <mxGeometry x="-40" y="990" width="230" height="30" as="geometry" />
        </mxCell>
        <mxCell id="ozFD0g-pxYkvfozkEqXr-29" value="10" style="edgeStyle=orthogonalEdgeStyle;rounded=0;orthogonalLoop=1;jettySize=auto;html=1;entryX=0;entryY=0.5;entryDx=0;entryDy=0;exitX=0.5;exitY=0;exitDx=0;exitDy=0;" edge="1" parent="WIyWlLk6GJQsqaUBKTNV-1" source="ozFD0g-pxYkvfozkEqXr-25" target="ozFD0g-pxYkvfozkEqXr-28">
          <mxGeometry relative="1" as="geometry" />
        </mxCell>
        <mxCell id="ozFD0g-pxYkvfozkEqXr-31" style="edgeStyle=orthogonalEdgeStyle;rounded=0;orthogonalLoop=1;jettySize=auto;html=1;entryX=0;entryY=0.5;entryDx=0;entryDy=0;" edge="1" parent="WIyWlLk6GJQsqaUBKTNV-1" source="ozFD0g-pxYkvfozkEqXr-25" target="ozFD0g-pxYkvfozkEqXr-30">
          <mxGeometry relative="1" as="geometry" />
        </mxCell>
        <mxCell id="ozFD0g-pxYkvfozkEqXr-25" value="33/77%" style="rhombus;whiteSpace=wrap;html=1;" vertex="1" parent="WIyWlLk6GJQsqaUBKTNV-1">
          <mxGeometry x="160" y="1080" width="50" height="50" as="geometry" />
        </mxCell>
        <mxCell id="ozFD0g-pxYkvfozkEqXr-27" value="30" style="edgeStyle=orthogonalEdgeStyle;rounded=0;orthogonalLoop=1;jettySize=auto;html=1;" edge="1" parent="WIyWlLk6GJQsqaUBKTNV-1" source="ozFD0g-pxYkvfozkEqXr-26" target="ozFD0g-pxYkvfozkEqXr-25">
          <mxGeometry relative="1" as="geometry" />
        </mxCell>
        <mxCell id="ozFD0g-pxYkvfozkEqXr-26" value="queue" style="rounded=0;whiteSpace=wrap;html=1;" vertex="1" parent="WIyWlLk6GJQsqaUBKTNV-1">
          <mxGeometry x="60" y="1092.5" width="50" height="25" as="geometry" />
        </mxCell>
        <mxCell id="ozFD0g-pxYkvfozkEqXr-33" style="edgeStyle=orthogonalEdgeStyle;rounded=0;orthogonalLoop=1;jettySize=auto;html=1;entryX=0.5;entryY=0;entryDx=0;entryDy=0;" edge="1" parent="WIyWlLk6GJQsqaUBKTNV-1" source="ozFD0g-pxYkvfozkEqXr-28" target="ozFD0g-pxYkvfozkEqXr-30">
          <mxGeometry relative="1" as="geometry" />
        </mxCell>
        <mxCell id="ozFD0g-pxYkvfozkEqXr-34" value="10" style="edgeLabel;html=1;align=center;verticalAlign=middle;resizable=0;points=[];" vertex="1" connectable="0" parent="ozFD0g-pxYkvfozkEqXr-33">
          <mxGeometry x="0.0273" y="-1" relative="1" as="geometry">
            <mxPoint as="offset" />
          </mxGeometry>
        </mxCell>
        <mxCell id="ozFD0g-pxYkvfozkEqXr-28" value="SKK" style="ellipse;whiteSpace=wrap;html=1;" vertex="1" parent="WIyWlLk6GJQsqaUBKTNV-1">
          <mxGeometry x="220" y="1030" width="50" height="30" as="geometry" />
        </mxCell>
        <mxCell id="ozFD0g-pxYkvfozkEqXr-36" style="edgeStyle=orthogonalEdgeStyle;rounded=0;orthogonalLoop=1;jettySize=auto;html=1;entryX=0;entryY=0.5;entryDx=0;entryDy=0;" edge="1" parent="WIyWlLk6GJQsqaUBKTNV-1" source="ozFD0g-pxYkvfozkEqXr-30" target="ozFD0g-pxYkvfozkEqXr-35">
          <mxGeometry relative="1" as="geometry" />
        </mxCell>
        <mxCell id="ozFD0g-pxYkvfozkEqXr-30" value="&amp;nbsp;статус SKK" style="rhombus;whiteSpace=wrap;html=1;" vertex="1" parent="WIyWlLk6GJQsqaUBKTNV-1">
          <mxGeometry x="280" y="1070" width="80" height="70" as="geometry" />
        </mxCell>
        <mxCell id="ozFD0g-pxYkvfozkEqXr-35" value="&amp;nbsp;статус SKK" style="rhombus;whiteSpace=wrap;html=1;" vertex="1" parent="WIyWlLk6GJQsqaUBKTNV-1">
          <mxGeometry x="420" y="1070" width="80" height="70" as="geometry" />
        </mxCell>
      </root>
    </mxGraphModel>
  </diagram>
</mxfile>
